<svg width="112" height="28" viewBox="0 0 112 28" fill="none" xmlns="http://www.w3.org/2000/svg">
<path fill-rule="evenodd" clip-rule="evenodd" d="M111.294 21.5633C106.636 29.4606 99.259 27.1691 97.0435 25.3749C96.1005 26.0147 94.4472 27.417 92.2425 27.255C87.5472 26.9104 85.8659 20.2007 85.8659 20.2007C85.8996 20.2275 84.4672 20.6949 83.6931 20.6866C83.6832 22.6542 81.9823 27.3546 77.3919 27.2945C72.2408 27.2273 71.1936 19.5531 71.1936 19.5531C71.1936 19.5531 70.681 20.2649 68.732 20.9739C68.8301 19.4622 68.7584 27.0644 62.5846 27.1761C57.7038 27.2646 56.3863 19.4348 56.3863 19.4348C56.3863 19.4348 55.5396 20.3143 53.8987 20.6194C54.003 19.0831 53.8334 27.2019 47.6589 27.1761C43.4862 27.1588 42.0603 22.353 42.1712 21.686C42.3127 20.8359 40.761 27.2957 36.7079 27.195C35.0353 27.1459 33.7883 25.9349 33.0059 24.3204C31.9584 25.5189 30.4376 27.195 28.7316 27.195C25.6692 27.195 24.3191 24.6337 24.5477 17.3179C24.5673 16.4502 24.5046 16.109 23.6421 15.9792C23.1243 15.8928 22.5941 15.7292 22.0331 15.643C21.8533 16.243 20.3283 26.9998 15.0842 27.204C13.3249 27.2725 12.363 25.7485 11.573 24.6174C10.362 26.2194 8.76335 27.255 6.486 27.255C2.62834 27.255 0 24.1365 0 20.2895C0 16.4425 2.62834 13.3242 6.486 13.3242C7.16807 13.3242 7.35954 13.422 7.98266 13.6038C6.7012 1.93646 9.72749 0.113027 12.3748 0.113027C14.9164 0.113027 19.2585 6.01204 13.1488 20.9751C14.5053 25.4381 17.4296 25.1857 18.8348 15.9982C19.1208 14.1307 18.3561 11.6105 19.5455 11.2588C21.7199 10.616 21.9506 12.5446 22.9701 12.866C24.0481 13.2056 24.6773 13.1724 25.7121 13.3885C27.4805 13.7339 28.1706 14.6838 27.9551 16.7996C27.6964 19.4767 27.2438 23.3732 28.6238 23.8481C29.6189 24.1931 31.4358 22.1293 31.7547 21.0001C32.0734 19.871 32.1399 19.4845 32.1683 18.6563C32.2114 16.8861 32.2655 15.5886 32.5673 14.2499C32.6965 13.7319 32.8438 13.3888 33.4299 13.3654C33.9121 13.3531 34.794 13.2079 35.1823 13.51C35.6997 13.8988 35.635 14.2933 35.5756 15.3316C34.9738 30.1353 39.6056 22.7452 40.9866 16.8279C40.4948 10.1369 40.8324 0.235551 45.0253 0.0694879C47.206 -0.0168743 48.17 1.73006 48.2761 3.03399C48.576 6.71676 46.8959 12.8172 44.6864 16.9197C43.4236 25.2907 50.2077 26.9459 51.2926 20.2642C49.5176 19.4202 47.5993 16.0044 49.1603 14.3397C50.0362 13.4055 53.6822 14.7476 53.7419 17.6748C55.5303 17.1965 55.7691 16.1867 55.7939 16.354C55.3023 9.66298 55.7583 0.235638 59.9515 0.0695734C62.1318 -0.0167888 63.0957 1.73015 63.2017 3.03407C63.5017 6.71683 61.8216 12.8173 59.6124 16.9199C58.3494 25.2907 65.1336 26.946 66.2182 20.2643C64.9041 20.0107 62.1301 16.3775 63.7306 14.3398C64.586 13.2509 68.2186 15.5154 68.6253 17.7717C70.3434 17.2855 70.5767 16.3078 70.6014 16.4724C70.1096 9.78156 70.5656 0.354218 74.7588 0.188154C76.9391 0.101792 77.903 1.84873 78.0091 3.15265C78.309 6.83541 76.6289 12.936 74.4194 17.0385C73.1568 25.4095 79.9408 27.0644 81.0257 20.3827C79.2198 20.082 76.6533 16.2458 78.7189 14.2833C79.5442 13.4992 82.6977 15.5346 83.4359 17.8568C84.4615 17.8173 85.1 17.4636 85.2368 17.4279C83.5994 9.57305 84.8184 0.148361 89.3291 0.0696886C91.7671 0.0272078 94.1506 1.38773 93.1044 8.8606C92.1058 15.9906 88.5161 18.9827 88.5245 19.0285C88.7333 19.8827 90.5753 27.0312 95.2138 23.2594C94.9737 22.7157 94.7333 22.1603 94.599 21.4874C93.8301 17.5677 95.3402 13.1404 99.4447 12.4249C101.796 12.0149 104.012 13.1598 104.362 15.741C104.938 19.9645 101.124 23.0233 99.6741 23.6868C99.0245 23.3178 105.562 27.5107 109.442 19.108C109.667 18.6282 109.938 18.6689 110.29 18.9162C110.538 19.0908 111.951 20.4299 111.294 21.5633ZM9.2921 19.2517C9.09468 18.6615 8.68955 17.361 8.54628 16.7976C7.75727 16.1114 7.1941 16 6.18134 16C3.93067 16 2.60596 18.0809 2.60596 20.3247C2.60596 22.5684 4.04913 24.6496 6.29982 24.6496C8.25029 24.6496 9.73478 23.3235 10.1877 21.4462C9.87068 20.7143 9.55621 20.0417 9.2921 19.2517ZM12.3197 3.20145C10.7382 3.20145 10.2018 6.97401 10.3059 10.1924C10.398 13.0378 11.1931 15.5428 11.6055 16.6653C11.7102 16.8059 11.6908 16.7144 11.7843 16.8636C14.5302 10.8472 13.3913 3.20145 12.3197 3.20145ZM45.2512 3.31996C43.2073 3.08554 43.2205 11.6001 43.4742 13.51C44.5358 11.8118 46.3798 3.77721 45.2512 3.31996ZM60.1769 3.31996C58.1329 3.08554 58.1461 11.6001 58.4 13.51C59.4615 11.8118 61.3056 3.77721 60.1769 3.31996ZM74.9844 3.43842C72.9403 3.204 72.9535 11.7186 73.2074 13.6287C74.2688 11.9303 76.113 3.89564 74.9844 3.43842ZM89.5547 2.82153C86.3701 3.46102 87.1116 14.0789 87.5953 15.9412C91.3465 10.789 91.4238 2.628 89.5547 2.82153ZM101.49 16.0903C101.328 15.4133 100.518 15.0515 99.9593 15.1407C98.3604 15.359 96.8095 17.3505 97.4098 20.3824C97.5435 21.0576 97.8779 21.6792 97.8724 21.6585C101.451 19.2577 101.755 17.3659 101.49 16.0903ZM34.0567 11.0218C33.5997 11.0219 33.153 10.8864 32.773 10.6326C32.3929 10.3787 32.0967 10.0179 31.9217 9.59571C31.7467 9.17351 31.701 8.7089 31.7901 8.26067C31.8792 7.81243 32.0993 7.40069 32.4224 7.07751C32.7455 6.75433 33.1572 6.53425 33.6054 6.44507C34.0537 6.3559 34.5183 6.40164 34.9405 6.57654C35.3628 6.75143 35.7236 7.04761 35.9775 7.42761C36.2314 7.80761 36.3669 8.25437 36.3669 8.71137C36.3669 9.01476 36.3072 9.31519 36.191 9.59549C36.075 9.8758 35.9049 10.1305 35.6903 10.345C35.4757 10.5596 35.2211 10.7298 34.9408 10.8459C34.6606 10.962 34.3602 11.0218 34.0567 11.0218Z" fill="#8184A3"/>
</svg>
