<svg width="148" height="20" viewBox="0 0 148 20" fill="none" xmlns="http://www.w3.org/2000/svg">
<path d="M87.5705 0.000332958C84.5401 0.000332958 81.5778 2.74452 81.2371 6.70959V0.327211H76.8852V19.5718H81.2904V10.2566C81.2904 7.64723 83.1399 3.96639 87.5705 3.96639V0.000332958Z" fill="#8184A3"/>
<path d="M133.778 16.4909V3.30607H136.33C139.733 3.30607 142.497 5.43265 142.497 9.79218C142.497 14.1516 139.733 16.4909 136.33 16.4909H133.778ZM129.419 19.5744H136.862C141.434 19.5744 147.069 16.5972 147.069 9.79218C147.069 3.09341 141.434 0.328851 136.862 0.328851H129.419V19.5744Z" fill="#8184A3"/>
<path d="M112.738 10.005C112.738 6.49618 114.546 3.62529 117.523 3.62529C120.394 3.62529 121.989 6.49618 121.989 10.005C121.989 13.5139 120.394 16.3848 117.523 16.3848C114.546 16.3848 112.738 13.5139 112.738 10.005ZM108.272 10.2177C108.272 15.9595 111.249 20 115.928 20C119.33 20 121.35 17.7671 122.414 14.1519V19.5747H126.772V0.329087H122.414V5.43289C121.457 2.03035 119.437 0.0100997 116.247 0.0100997C111.462 0.0100997 108.272 4.3696 108.272 10.2177Z" fill="#8184A3"/>
<path d="M8.99841 20C3.57561 20 0.385742 15.6405 0.385742 10.2177C0.385742 4.58225 3.8946 0.0100997 10.5933 0.0100997C17.5047 0.0100997 19.844 4.68858 19.9503 7.3468H14.9528C14.8465 5.8582 13.5705 3.62529 10.487 3.62529C7.1908 3.62529 5.06423 6.49618 5.06423 10.005C5.06423 13.5139 7.1908 16.3848 10.487 16.3848C13.4642 16.3848 14.7401 14.0456 15.2718 11.7063H10.487V9.79235H20.5271V19.5747H16.1224V13.4076C15.8035 15.6405 14.4212 20 8.99841 20Z" fill="#8184A3"/>
<path d="M29.4579 19.9998C25.3111 19.9998 22.7592 17.2352 22.7592 11.7061V0.328851H27.225V11.7061C27.225 14.5769 28.6073 15.9592 30.9465 15.9592C35.5187 15.9592 37.2199 10.3238 37.2199 6.38961V0.328851H41.6857V19.5744H37.3262V12.4504C36.4756 16.3845 34.1364 19.9998 29.4579 19.9998Z" fill="#8184A3"/>
<path d="M68.3722 0C64.5621 0 62.1585 3.68057 61.3739 7.08369C61.2398 2.52309 58.9971 0 55.4086 0C52.3083 0 49.432 2.76481 48.6849 7.13876V0.327387H44.3315V19.5734H48.7407V12.6738C48.7407 10.9633 49.4538 3.94376 53.8925 3.94376C56.7678 3.94376 57.0676 6.53738 57.0676 10.0827V19.5734H61.4748V12.6738C61.4748 10.9633 62.2174 3.94376 66.656 3.94376C69.529 3.94376 69.8257 6.53738 69.8257 10.0827V19.5734H74.2389V8.18949C74.2589 2.72815 72.3307 0 68.3722 0Z" fill="#8184A3"/>
<path d="M97.0302 0C91.3222 0 87.4544 4.47571 87.4544 9.99996C87.4544 16.0869 91.1328 19.9999 97.0302 19.9999C102.738 19.9999 106.675 15.5243 106.675 9.99996C106.675 3.91305 102.925 0 97.0302 0ZM97.0302 16.5933C93.7071 16.5933 91.5549 13.78 91.5549 9.99996C91.5549 6.21994 93.7145 3.40659 97.0302 3.40659C100.345 3.40659 102.419 6.21994 102.419 9.99996C102.419 13.78 100.343 16.5933 97.0302 16.5933Z" fill="#8184A3"/>
</svg>
