<svg width="125" height="36" viewBox="0 0 125 36" fill="none" xmlns="http://www.w3.org/2000/svg">
<path d="M6.42617 0.285569C3.8706 1.3553 1.06117 4.37741 0.173863 8.17081C-0.949845 12.9772 3.72643 15.0097 4.10998 14.3433C4.56141 13.5602 3.27204 13.2954 3.00664 10.8016C2.66362 7.5807 4.16102 3.98167 6.04556 2.40253C6.39586 2.10914 6.37919 2.51749 6.37919 3.27281C6.37919 4.6235 6.30456 16.7488 6.30456 19.2793C6.30456 22.7035 6.16313 23.7848 5.90913 24.8532C5.65176 25.936 5.238 26.6676 5.55152 26.9494C5.90181 27.2646 7.3974 26.5148 8.26322 25.3064C9.30147 23.8571 9.6649 22.1166 9.73015 20.2264C9.80896 17.9478 9.80561 14.3322 9.80896 12.2699C9.81212 10.3784 9.84082 4.83983 9.77581 1.51024C9.75987 0.693555 7.49492 -0.163265 6.42605 0.284575L6.42617 0.285569ZM97.1745 16.3104C97.0921 18.0905 96.698 19.4819 96.209 20.4634C95.2622 22.3634 93.2976 22.9534 92.4635 20.222C92.0089 18.7332 91.9877 16.2466 92.3145 14.169C92.6472 12.0524 93.5761 10.4539 95.1143 10.5981C96.6314 10.7406 97.3416 12.6956 97.1745 16.3104ZM71.5978 27.3548C71.5772 30.3126 71.1117 32.906 70.1135 33.6592C68.6976 34.7272 66.7946 33.9261 67.1887 31.7677C67.5373 29.8578 69.1862 27.9073 71.6018 25.524C71.6018 25.524 71.6068 26.0675 71.5978 27.3548ZM71.2111 16.2931C71.1246 17.9145 70.7042 19.5433 70.2457 20.4636C69.2991 22.3636 67.3202 22.9576 66.5002 20.2222C65.9395 18.3533 66.0737 15.9345 66.3512 14.4104C66.7112 12.433 67.5838 10.5985 69.1509 10.5985C70.6746 10.5985 71.4259 12.27 71.2111 16.2931ZM56.3946 16.2683C56.3017 17.9855 55.9667 19.421 55.4291 20.4636C54.4564 22.3505 52.5322 22.9489 51.6836 20.2222C51.0718 18.2561 51.2801 15.5751 51.5346 14.1269C51.9122 11.9778 52.858 10.4541 54.3343 10.5985C55.8509 10.7467 56.5881 12.6956 56.3946 16.2683ZM124.296 18.2741C123.925 18.2741 123.756 18.6562 123.616 19.2994C123.13 21.536 122.62 22.041 121.962 22.041C121.227 22.041 120.566 20.9335 120.396 18.7166C120.263 16.9735 120.284 13.7642 120.455 10.5718C120.49 9.91594 120.309 9.26696 118.55 8.62786C117.793 8.35296 116.692 7.94819 116.144 9.27075C114.596 13.0072 113.991 15.9736 113.848 17.1787C113.841 17.2411 113.764 17.2538 113.751 17.1081C113.66 16.1429 113.457 14.389 113.432 10.7041C113.427 9.98508 113.275 9.37309 112.481 8.87206C111.966 8.54695 110.403 7.97195 109.84 8.65602C109.352 9.21547 108.787 10.7211 108.2 12.5058C107.723 13.9563 107.391 14.9375 107.391 14.9375C107.391 14.9375 107.397 11.0237 107.403 9.53912C107.405 8.97904 107.021 8.79242 106.905 8.75859C106.384 8.60726 105.356 8.35445 104.92 8.35445C104.382 8.35445 104.251 8.65518 104.251 9.09337C104.251 9.15074 104.166 14.2463 104.166 17.8094C104.166 17.9641 104.166 18.133 104.167 18.3124C103.87 19.95 102.905 22.173 101.855 22.173C100.804 22.173 100.309 21.2437 100.309 16.9959C100.309 14.5179 100.383 13.4404 100.419 11.6482C100.441 10.6159 100.482 9.82313 100.479 9.64323C100.472 9.09156 99.5177 8.81351 99.0738 8.71075C98.6279 8.60713 98.2403 8.56699 97.9377 8.58422C97.5094 8.60839 97.2063 8.88939 97.2063 9.27587C97.2063 9.48309 97.2087 9.87714 97.2087 9.87714C96.657 9.01023 95.7697 8.40685 95.1794 8.232C93.5893 7.75977 91.9301 8.17819 90.6786 9.92948C89.6839 11.321 89.0843 12.8969 88.8483 15.1612C88.6757 16.8166 88.7321 18.4952 89.0387 19.9149C88.6682 21.5168 87.9803 22.173 87.2271 22.173C86.1336 22.173 85.3409 20.3882 85.4329 17.3015C85.4937 15.2712 85.8999 13.8465 86.344 11.7852C86.5333 10.9065 86.3795 10.4465 85.9936 10.0055C85.6397 9.6012 84.8857 9.39461 83.8017 9.6487C83.0295 9.82986 81.9256 10.0247 80.9155 10.1743C80.9155 10.1743 80.9765 9.93115 81.0265 9.50243C81.2892 7.25412 78.8461 7.43654 78.0666 8.15466C77.6013 8.58339 77.2846 9.08904 77.1644 9.9982C76.9737 11.441 78.1504 12.1215 78.1504 12.1215C77.7644 13.8887 76.818 16.1973 75.841 17.8664C75.3177 18.7607 74.9173 19.4233 74.4005 20.1278C74.3986 19.8655 74.3972 19.6032 74.3963 19.3421C74.3844 15.6267 74.4339 12.7025 74.4557 11.6485C74.477 10.6162 74.5184 9.8445 74.516 9.66461C74.5102 9.2611 74.2746 9.10873 73.7845 8.9158C73.3511 8.74515 72.8387 8.62704 72.3073 8.58585C71.6364 8.53352 71.2323 8.88933 71.2428 9.31007C71.2448 9.38951 71.2448 9.8773 71.2448 9.8773C70.6931 9.01037 69.8058 8.40701 69.2155 8.23214C67.6254 7.76012 65.9662 8.17856 64.7147 9.92962C63.7202 11.3211 63.0689 13.2737 62.8844 15.1441C62.7125 16.8874 62.7442 18.3689 62.9785 19.6168C62.7257 20.8664 61.9988 22.1732 61.1768 22.1732C60.126 22.1732 59.5281 21.2438 59.5281 16.9961C59.5281 14.5181 59.6025 13.4406 59.6391 11.6485C59.6603 10.6162 59.7013 9.82328 59.699 9.64359C59.6912 9.09192 58.7373 8.81387 58.2934 8.7109C57.829 8.6035 57.428 8.564 57.1201 8.58668C56.7138 8.61695 56.4282 8.98075 56.4282 9.25206V9.8773C55.8766 9.01037 54.9893 8.40701 54.3989 8.23214C52.8088 7.76012 51.1589 8.18529 49.8981 9.92962C49.076 11.067 48.4104 12.328 48.0678 15.1193C47.9688 15.926 47.9251 16.6814 47.9308 17.3874C47.6029 19.3924 46.1549 21.7033 44.9704 21.7033C44.2773 21.7033 43.6172 20.3589 43.6172 17.4937C43.6172 13.6772 43.8534 8.24329 43.8934 7.71957C43.8934 7.71957 45.3899 7.69414 45.6797 7.69077C46.4262 7.68257 47.1023 7.70023 48.0966 7.64937C48.5953 7.62394 49.0757 5.8342 48.561 5.6127C48.3278 5.51245 46.679 5.42461 46.0255 5.41073C45.4759 5.39828 43.9459 5.28506 43.9459 5.28506C43.9459 5.28506 44.0831 1.67826 44.1151 1.29725C44.1422 0.979692 43.7313 0.816192 43.4957 0.716982C42.9228 0.474672 42.4103 0.358656 41.8027 0.233402C40.9633 0.0602376 40.5825 0.229619 40.5081 0.938072C40.3961 2.01327 40.3381 5.16253 40.3381 5.16253C39.7221 5.16253 37.6179 5.04211 37.0018 5.04211C36.4293 5.04211 35.8114 7.50415 36.6029 7.53441C37.5135 7.56972 39.1004 7.6002 40.1525 7.63193C40.1525 7.63193 40.1056 13.1554 40.1056 14.8606C40.1056 15.0421 40.1072 15.2168 40.1075 15.3863C39.5285 18.4042 37.4891 20.0344 37.4891 20.0344C37.9271 18.0379 37.0324 16.5386 35.4209 15.2694C34.8272 14.8018 33.6551 13.9164 32.3437 12.9461C32.3437 12.9461 33.1033 12.1975 33.7768 10.6915C34.2541 9.62472 34.2747 8.40389 33.1033 8.13468C31.1677 7.68955 29.5717 9.11108 29.0957 10.6287C28.7269 11.8043 28.9236 12.6767 29.6461 13.5829C29.6989 13.6491 29.756 13.7168 29.8151 13.7849C29.3781 14.627 28.7779 15.7608 28.2695 16.6401C26.8585 19.0813 25.7926 21.0123 24.987 21.0123C24.3431 21.0123 24.3517 19.0519 24.3517 17.2164C24.3517 15.634 24.4686 13.255 24.5619 10.792C24.5928 9.97737 24.1855 9.51333 23.5027 9.09301C23.0878 8.83766 22.2024 8.33559 21.6896 8.33559C20.9221 8.33559 18.7076 8.44004 16.6153 14.4925C16.3516 15.2553 15.8335 16.6454 15.8335 16.6454L15.8781 9.36706C15.8781 9.19641 15.7872 9.03143 15.5791 8.91857C15.2266 8.72712 14.2848 8.33559 13.4475 8.33559C13.0485 8.33559 12.8494 8.52116 12.8494 8.89104L12.7764 20.278C12.7764 21.1432 12.7989 22.1525 12.8845 22.594C12.9697 23.036 13.1078 23.3956 13.2788 23.6095C13.4495 23.823 13.647 23.9859 13.9727 24.0531C14.2758 24.1155 15.9355 24.3287 16.0218 23.6944C16.1251 22.9343 16.1291 22.1121 17.0006 19.0458C18.3574 14.272 20.1263 11.9428 20.9579 11.1156C21.1033 10.971 21.2694 10.9624 21.2614 11.199C21.2259 12.2456 21.101 14.8609 21.017 17.0827C20.7917 23.0286 21.8734 24.1307 23.4191 24.1307C24.6017 24.1307 26.2687 22.9557 28.0557 19.9813C29.1698 18.1277 30.2515 16.3102 31.0286 15.0002C31.5702 15.5016 32.178 16.0412 32.7854 16.6176C34.1968 17.9573 34.6602 19.2302 34.3528 20.4377C34.1176 21.3609 33.232 22.3123 31.6558 21.3876C31.1964 21.1178 31.0003 20.9094 30.5383 20.6052C30.2901 20.4418 29.9112 20.393 29.684 20.5642C29.0939 21.0091 28.7564 21.5751 28.5637 22.2758C28.3762 22.9575 29.059 23.318 29.7668 23.6332C30.3763 23.9045 31.6862 24.1504 32.5216 24.1784C35.7766 24.2872 38.3841 22.6068 40.1992 18.272C40.5242 22.0156 41.907 24.134 44.3096 24.134C45.9159 24.134 47.5263 22.0578 48.2306 20.0153C48.4327 20.8479 48.732 21.5719 49.1185 22.1841C50.9698 25.1174 54.5613 24.486 56.3653 21.9953C56.9231 21.2256 57.008 20.9491 57.008 20.9491C57.2711 23.301 59.1651 24.1227 60.2495 24.1227C61.464 24.1227 62.718 23.5485 63.5969 21.5699C63.6999 21.7846 63.8124 21.9897 63.9351 22.1841C65.7864 25.1173 69.3778 24.486 71.1819 21.9952C71.267 21.8784 71.3408 21.7724 71.4053 21.6772L71.4582 23.2221C71.4582 23.2221 70.4291 24.1662 69.7973 24.7453C67.0169 27.2963 64.9027 29.2317 64.7472 31.4854C64.5475 34.3592 66.8782 35.4272 68.6414 35.5672C70.514 35.7158 72.1175 34.6814 73.1032 33.2337C73.9701 31.9596 74.5375 29.2172 74.4959 26.5086C74.4793 25.424 74.452 24.0449 74.4305 22.5666C75.4078 21.4317 76.5088 19.9974 77.5227 18.3184C78.6275 16.4887 79.8115 14.0315 80.4178 12.1193C80.4178 12.1193 81.4466 12.1281 82.5445 12.0562C82.8956 12.0333 82.9965 12.105 82.9316 12.3624C82.8532 12.6735 81.5445 17.7211 82.7389 21.0837C83.5564 23.3856 85.3993 24.1262 86.4919 24.1262C87.771 24.1262 88.9945 23.1603 89.6502 21.726C89.7292 21.8859 89.8118 22.0406 89.902 22.1834C91.7533 25.1167 95.3322 24.4816 97.1488 21.9946C97.5588 21.4335 97.7915 20.9484 97.7915 20.9484C98.1813 23.3824 100.074 24.1344 101.158 24.1344C102.288 24.1344 103.36 23.6714 104.229 21.6137C104.266 22.5197 104.323 23.2605 104.413 23.4941C104.468 23.6369 104.789 23.8162 105.023 23.9028C106.056 24.286 107.11 24.1048 107.499 24.026C107.769 23.9713 107.98 23.7547 108.009 23.1952C108.085 21.7262 108.038 19.258 108.483 17.4237C109.231 14.3453 109.928 13.1512 110.259 12.56C110.444 12.2288 110.653 12.1741 110.661 12.5247C110.676 13.234 110.712 15.3169 111.001 18.1154C111.214 20.1736 111.498 21.3901 111.716 21.7751C112.339 22.8762 113.109 22.9283 113.736 22.9283C114.134 22.9283 114.968 22.8181 114.894 22.1175C114.857 21.776 114.921 19.6653 115.658 16.6325C116.139 14.6519 116.942 12.8624 117.231 12.2082C117.338 11.9669 117.387 12.1571 117.386 12.1941C117.325 13.5581 117.188 18.0194 117.744 20.4594C118.497 23.7648 120.676 24.1346 121.435 24.1346C123.056 24.1346 124.382 22.9016 124.828 19.6572C124.936 18.8764 124.777 18.2735 124.299 18.2735" fill="#8184A3"/>
</svg>
