<svg width="145" height="23" viewBox="0 0 145 23" fill="none" xmlns="http://www.w3.org/2000/svg">
<path d="M10.8308 0.740684C16.7997 0.740684 21.6615 5.6025 21.6615 11.6196C21.6615 17.6367 16.7997 22.4985 10.8308 22.4985C4.86181 22.4985 0 17.6848 0 11.6196C0 5.55436 4.86181 0.740684 10.8308 0.740684ZM95.744 0.5V19.5622C95.744 21.0063 96.3216 21.3914 97.4288 21.6802L97.4769 21.9209H91.3636V19.5622C90.6415 21.2951 89.1493 22.3541 87.2238 22.3541C83.9505 22.3541 81.7844 19.3696 81.7844 14.941C81.7844 12.4379 82.5064 10.3199 83.8542 8.73139C85.1539 7.19101 86.935 6.37268 88.9086 6.37268C89.8713 6.37268 90.6896 6.56523 91.3636 6.99846V4.39908C91.3636 3.82144 91.2192 3.43634 90.9303 3.14752C90.5452 2.81056 89.9195 2.66615 88.9567 2.76243H88.9086V2.52174L95.744 0.5ZM118.946 6.42082V19.5622C118.946 21.0063 119.524 21.3914 120.631 21.6802V21.9209H114.517V19.514C113.795 21.2469 112.207 22.3541 110.426 22.3541C108.308 22.3541 106.96 21.3914 106.43 19.514L106.334 19.0326C106.238 18.5513 106.19 18.0699 106.19 17.5885V10.5606C106.19 9.02021 105.853 8.53884 104.505 8.44256H104.457V8.20188L110.57 6.42082V17.4923C110.57 19.1289 111.292 20.0435 112.64 20.0435C113.458 20.0435 114.132 19.6103 114.517 18.8882V10.5606C114.517 8.97207 114.229 8.4907 113.121 8.39443H113.073V8.15374L118.946 6.42082ZM74.8045 6.37268C76.4412 6.37268 78.0297 6.95033 79.0887 7.9612C80.2921 9.11648 80.9179 10.8013 80.966 13.0156V13.0637H71.7719C71.5794 16.2407 73.553 18.8401 76.1524 18.9364C78.0297 19.0808 79.6663 17.9255 80.5809 16.0482L80.8216 16.1444C80.2921 19.6584 78.2222 22.3059 74.612 22.3059C70.5204 22.3059 68.2098 18.8882 68.1135 14.6041V13.4969C68.3061 11.6196 68.8837 9.9348 69.8946 8.68325C70.5204 7.91306 71.2424 7.33542 72.1089 6.95033C72.8309 6.56523 73.8899 6.37268 74.7564 6.37268H74.8045ZM138.489 6.42082C141.089 6.42082 142.677 8.05747 142.677 10.8494V19.8028C142.677 20.8618 143.159 21.3914 144.362 21.6802H144.41V21.9209H138.249V10.9938C138.249 9.26089 137.623 8.39443 136.323 8.39443C135.264 8.39443 134.735 9.16462 134.446 9.83853C134.494 10.1755 134.542 10.5124 134.542 10.8494V19.9472C134.542 21.0544 134.879 21.4395 135.842 21.6802H135.89V21.9209H130.162V10.9938C130.162 9.26089 129.488 8.39443 128.236 8.39443C127.225 8.39443 126.696 9.11648 126.455 9.69412V19.9954C126.455 21.1025 126.792 21.4876 127.755 21.7283H127.803V21.969H122.075V10.5124C122.075 8.97207 121.69 8.4907 120.39 8.39443H120.342V8.15374L126.455 6.46896V9.02021C127.081 7.38356 128.525 6.42082 130.354 6.42082C132.424 6.42082 133.868 7.43169 134.35 9.26089C134.975 7.52797 136.564 6.42082 138.489 6.42082ZM50.688 1.46274L56.4163 14.8929L62.1446 1.46274H68.3061L68.2579 1.70342L68.188 1.71899C67.1265 1.96093 66.5731 2.35787 66.5731 3.67703V20.0435C66.6694 21.1025 67.2471 21.4395 68.2579 21.6802H68.3061V21.9209H60.4598V21.6802H60.5079C61.5188 21.4395 62.0964 21.1025 62.1927 20.0435V4.11026L54.6352 21.8727H54.202L46.8371 4.59162V19.6584C46.8371 21.0063 47.4147 21.3914 48.5219 21.632H48.57V21.8727H44.0451V21.632H44.0933C45.2004 21.3914 45.7781 21.0063 45.7781 19.6584V3.67703C45.7781 2.3292 45.2004 1.9441 44.0933 1.70342H44.0451V1.46274H50.688ZM103.205 6.42082V19.5622L103.206 19.651C103.23 21.0223 103.806 21.3974 104.89 21.6802L104.938 21.9209H98.8248V10.5606C98.8248 9.02021 98.4878 8.53884 97.14 8.44256H97.0919V8.20188L103.205 6.42082ZM28.16 1.36646C31.0963 1.36646 33.5513 5.98759 33.5513 11.6196C33.5513 17.2997 31.1445 21.8727 28.16 21.8727C25.1755 21.8727 22.7687 17.2997 22.7687 11.6196C22.7687 5.93945 25.1755 1.36646 28.16 1.36646ZM36.4395 2.42547C37.5467 2.42547 38.365 6.56523 38.365 11.6196C38.365 16.6739 37.4985 20.8137 36.4395 20.8137C35.3911 20.8137 34.5314 16.7563 34.5143 11.7709L34.5141 11.6196C34.5141 6.56523 35.3805 2.42547 36.4395 2.42547ZM89.6306 7.23915C87.7052 7.23915 86.5018 9.79039 86.5018 13.7376C86.5018 15.6149 86.8387 17.2516 87.4164 18.3587C87.9459 19.4177 88.716 19.9954 89.5825 19.9954C90.449 19.9954 91.0747 19.6103 91.3636 18.8882V8.29815C91.0266 7.62424 90.4008 7.23915 89.6306 7.23915ZM74.7564 7.28728C73.0235 7.28728 72.0126 9.35716 71.8682 12.2454V12.2935H77.1151C77.2114 10.0311 76.8263 8.53884 76.1042 7.81679C75.7191 7.47983 75.2859 7.28728 74.7564 7.28728ZM100.847 0.64441C102.242 0.64441 103.301 1.70342 103.301 3.09938C103.301 4.49535 102.242 5.55436 100.847 5.55436C99.4505 5.55436 98.3915 4.49535 98.3915 3.09938C98.3915 1.70342 99.4505 0.64441 100.847 0.64441Z" fill="#8184A3"/>
</svg>
